<?xml version="1.0" encoding="UTF-8"?>
<svg version="1.1" xmlns="http://www.w3.org/2000/svg" width="2000" height="2000">
<path d="M0 0 C660 0 1320 0 2000 0 C2000 660 2000 1320 2000 2000 C1340 2000 680 2000 0 2000 C0 1340 0 680 0 0 Z " fill="#FEFEFE" transform="translate(0,0)"/>
<path d="M0 0 C108.9 0 217.8 0 330 0 C330 406.89 330 813.78 330 1233 C539.55 1233 749.1 1233 965 1233 C965 1325.4 965 1417.8 965 1513 C700.01 1513 435.02 1513 162 1513 C162 1514.32 162 1515.64 162 1517 C-156.45 1517 -474.9 1517 -803 1517 C-803 1017.71 -803 518.42 -803 4 C-694.1 4 -585.2 4 -473 4 C-473 410.89 -473 817.78 -473 1237 C-316.91 1237 -160.82 1237 0 1237 C0 828.79 0 420.58 0 0 Z " fill="#0097B2" transform="translate(966,240)"/>
<path d="M0 0 C108.9 0 217.8 0 330 0 C330 406.89 330 813.78 330 1233 C539.55 1233 749.1 1233 965 1233 C965 1325.4 965 1417.8 965 1513 C700.01 1513 435.02 1513 162 1513 C162 1421.92 162 1330.84 162 1237 C108.54 1237 55.08 1237 0 1237 C0 828.79 0 420.58 0 0 Z " fill="#000000" transform="translate(966,240)"/>
</svg>
